<svg width="13" height="14" viewBox="0 0 13 14" fill="none" xmlns="http://www.w3.org/2000/svg">
<path d="M0.363415 0.39137C0.596179 0.140776 0.911834 0 1.24096 0C1.57009 0 1.88575 0.140776 2.11851 0.39137L6.50749 5.11797L10.8965 0.39137C11.1306 0.147878 11.4441 0.0131451 11.7696 0.0161907C12.095 0.0192363 12.4063 0.159816 12.6365 0.407653C12.8666 0.655489 12.9971 0.990752 13 1.34123C13.0028 1.69171 12.8777 2.02937 12.6516 2.28147L8.26259 7.00807L12.6516 11.7347C12.8777 11.9868 13.0028 12.3244 13 12.6749C12.9971 13.0254 12.8666 13.3607 12.6365 13.6085C12.4063 13.8563 12.095 13.9969 11.7696 13.9999C11.4441 14.003 11.1306 13.8683 10.8965 13.6248L6.50749 8.89817L2.11851 13.6248C1.88441 13.8683 1.57088 14.003 1.24543 13.9999C0.919984 13.9969 0.608668 13.8563 0.378535 13.6085C0.148401 13.3607 0.0178623 13.0254 0.0150342 12.6749C0.0122062 12.3244 0.137315 11.9868 0.363415 11.7347L4.7524 7.00807L0.363415 2.28147C0.13072 2.0308 0 1.69087 0 1.33642C0 0.981975 0.13072 0.642039 0.363415 0.39137Z" fill="white"/>
</svg>
