<svg width="57" height="45" viewBox="0 0 57 45" fill="none" xmlns="http://www.w3.org/2000/svg">
<path d="M18.0938 12H43.9062C44.5103 12 45 12.5596 45 13.25C45 13.9404 44.5103 14.5 43.9062 14.5H18.0938C17.4897 14.5 17 13.9404 17 13.25C17 12.5596 17.4897 12 18.0938 12Z" fill="#781596"/>
<path d="M13.2891 21.5H43.7109C44.4229 21.5 45 21.9477 45 22.5C45 23.0523 44.4229 23.5 43.7109 23.5H13.2891C12.5771 23.5 12 23.0523 12 22.5C12 21.9477 12.5771 21.5 13.2891 21.5Z" fill="#781596"/>
<path d="M21.9375 30.5H44.0625C44.5803 30.5 45 31.0596 45 31.75C45 32.4404 44.5803 33 44.0625 33H21.9375C21.4197 33 21 32.4404 21 31.75C21 31.0596 21.4197 30.5 21.9375 30.5Z" fill="#781596"/>
</svg>
